# Blender v2.79 (sub 0) OBJ File: 'XX.blend'
# www.blender.org
mtllib XX.mtl
o X_Cube.001
v -0.772621 0.995146 -0.150000
v -0.995146 0.772621 -0.150000
v -0.995146 0.772621 0.150000
v -0.772621 0.995146 0.150000
v 0.995146 -0.772621 -0.150000
v 0.772621 -0.995146 -0.150000
v 0.772621 -0.995146 0.150000
v 0.995146 -0.772621 0.150000
v 0.995146 0.772621 -0.150000
v 0.772621 0.995146 -0.150000
v 0.772621 0.995146 0.150000
v 0.995146 0.772621 0.150000
v -0.772621 -0.995146 -0.150000
v -0.995146 -0.772621 -0.150000
v -0.995146 -0.772621 0.150000
v -0.772621 -0.995146 0.150000
vn -0.7071 0.7071 0.0000
vn 0.7071 -0.7071 0.0000
vn -0.0000 -0.0000 -1.0000
vn -0.7071 -0.7071 0.0000
vn 0.0000 0.0000 1.0000
vn 0.7071 0.7071 -0.0000
usemtl Material
s off
f 1//1 2//1 3//1 4//1
f 5//2 8//2 7//2 6//2
f 1//3 5//3 6//3 2//3
f 2//4 6//4 7//4 3//4
f 3//5 7//5 8//5 4//5
f 5//6 1//6 4//6 8//6
f 9//6 10//6 11//6 12//6
f 13//4 16//4 15//4 14//4
f 9//3 13//3 14//3 10//3
f 10//1 14//1 15//1 11//1
f 11//5 15//5 16//5 12//5
f 13//2 9//2 12//2 16//2
